<svg width="70" height="110" viewBox="0 0 217 208" fill="none" xmlns="http://www.w3.org/2000/svg">
<rect width="217" height="208" fill="none"/>
<rect x="6.5" y="6.5" width="204" height="195" rx="29.5" stroke="#64FFDA" stroke-width="8"/>
<path d="M47.3091 151C47.0091 151 46.7541 150.91 46.5441 150.73C46.3641 150.52 46.2741 150.265 46.2741 149.965V128.635C46.2741 128.335 46.3641 128.095 46.5441 127.915C46.7541 127.705 47.0091 127.6 47.3091 127.6H49.3341C49.6341 127.6 49.8741 127.705 50.0541 127.915C50.2641 128.095 50.3691 128.335 50.3691 128.635V130.21C51.0591 129.28 51.9291 128.545 52.9791 128.005C54.0291 127.435 55.2891 127.15 56.7591 127.15C60.1491 127.12 62.5491 128.5 63.9591 131.29C64.6491 130.03 65.6541 129.025 66.9741 128.275C68.2941 127.525 69.7941 127.15 71.4741 127.15C73.0341 127.15 74.4441 127.51 75.7041 128.23C76.9941 128.95 77.9991 130.045 78.7191 131.515C79.4691 132.955 79.8441 134.77 79.8441 136.96V149.965C79.8441 150.265 79.7391 150.52 79.5291 150.73C79.3491 150.91 79.1091 151 78.8091 151H76.6941C76.3941 151 76.1391 150.91 75.9291 150.73C75.7491 150.52 75.6591 150.265 75.6591 149.965V137.365C75.6591 135.685 75.4191 134.365 74.9391 133.405C74.4591 132.445 73.8141 131.77 73.0041 131.38C72.1941 130.99 71.3091 130.795 70.3491 130.795C69.5691 130.795 68.7741 130.99 67.9641 131.38C67.1541 131.77 66.4791 132.445 65.9391 133.405C65.4291 134.365 65.1741 135.685 65.1741 137.365V149.965C65.1741 150.265 65.0691 150.52 64.8591 150.73C64.6791 150.91 64.4391 151 64.1391 151H62.0241C61.7241 151 61.4691 150.91 61.2591 150.73C61.0791 150.52 60.9891 150.265 60.9891 149.965V137.365C60.9891 135.685 60.7341 134.365 60.2241 133.405C59.7141 132.445 59.0541 131.77 58.2441 131.38C57.4341 130.99 56.5791 130.795 55.6791 130.795C54.8991 130.795 54.1041 130.99 53.2941 131.38C52.4841 131.77 51.8091 132.445 51.2691 133.405C50.7591 134.365 50.5041 135.67 50.5041 137.32V149.965C50.5041 150.265 50.3991 150.52 50.1891 150.73C50.0091 150.91 49.7691 151 49.4691 151H47.3091ZM83.6994 151C83.3994 151 83.1444 150.91 82.9344 150.73C82.7544 150.52 82.6644 150.265 82.6644 149.965V128.635C82.6644 128.335 82.7544 128.095 82.9344 127.915C83.1444 127.705 83.3994 127.6 83.6994 127.6H85.8594C86.1594 127.6 86.3994 127.705 86.5794 127.915C86.7594 128.095 86.8494 128.335 86.8494 128.635V149.965C86.8494 150.265 86.7594 150.52 86.5794 150.73C86.3994 150.91 86.1594 151 85.8594 151H83.6994ZM83.3394 123.235C83.0394 123.235 82.7844 123.145 82.5744 122.965C82.3944 122.755 82.3044 122.5 82.3044 122.2V119.77C82.3044 119.47 82.3944 119.23 82.5744 119.05C82.7844 118.84 83.0394 118.735 83.3394 118.735H86.1744C86.4744 118.735 86.7144 118.84 86.8944 119.05C87.1044 119.23 87.2094 119.47 87.2094 119.77V122.2C87.2094 122.5 87.1044 122.755 86.8944 122.965C86.7144 123.145 86.4744 123.235 86.1744 123.235H83.3394ZM91.0428 151C90.7428 151 90.4878 150.91 90.2778 150.73C90.0978 150.52 90.0078 150.265 90.0078 149.965V120.085C90.0078 119.785 90.0978 119.545 90.2778 119.365C90.4878 119.155 90.7428 119.05 91.0428 119.05H93.1578C93.4578 119.05 93.6978 119.155 93.8778 119.365C94.0878 119.545 94.1928 119.785 94.1928 120.085V135.745L103.058 128.365C103.418 128.065 103.688 127.87 103.868 127.78C104.078 127.66 104.408 127.6 104.858 127.6H107.243C107.513 127.6 107.738 127.69 107.918 127.87C108.098 128.05 108.188 128.275 108.188 128.545C108.188 128.665 108.143 128.8 108.053 128.95C107.993 129.1 107.858 129.25 107.648 129.4L97.2528 138.04L108.773 149.245C109.133 149.545 109.313 149.815 109.313 150.055C109.313 150.325 109.223 150.55 109.043 150.73C108.863 150.91 108.638 151 108.368 151H106.028C105.578 151 105.248 150.955 105.038 150.865C104.828 150.745 104.558 150.535 104.228 150.235L94.1928 140.65V149.965C94.1928 150.265 94.0878 150.52 93.8778 150.73C93.6978 150.91 93.4578 151 93.1578 151H91.0428ZM117.782 151.45C114.692 151.45 112.232 150.505 110.402 148.615C108.572 146.695 107.567 144.085 107.387 140.785C107.357 140.395 107.342 139.9 107.342 139.3C107.342 138.67 107.357 138.16 107.387 137.77C107.507 135.64 108.002 133.78 108.872 132.19C109.742 130.57 110.927 129.325 112.427 128.455C113.957 127.585 115.742 127.15 117.782 127.15C120.062 127.15 121.967 127.63 123.497 128.59C125.057 129.55 126.242 130.915 127.052 132.685C127.862 134.455 128.267 136.525 128.267 138.895V139.66C128.267 139.99 128.162 140.245 127.952 140.425C127.772 140.605 127.532 140.695 127.232 140.695H111.662C111.662 140.725 111.662 140.785 111.662 140.875C111.662 140.965 111.662 141.04 111.662 141.1C111.722 142.33 111.992 143.485 112.472 144.565C112.952 145.615 113.642 146.47 114.542 147.13C115.442 147.79 116.522 148.12 117.782 148.12C118.862 148.12 119.762 147.955 120.482 147.625C121.202 147.295 121.787 146.935 122.237 146.545C122.687 146.125 122.987 145.81 123.137 145.6C123.407 145.21 123.617 144.985 123.767 144.925C123.917 144.835 124.157 144.79 124.487 144.79H126.647C126.947 144.79 127.187 144.88 127.367 145.06C127.577 145.21 127.667 145.435 127.637 145.735C127.607 146.185 127.367 146.74 126.917 147.4C126.467 148.03 125.822 148.66 124.982 149.29C124.142 149.92 123.122 150.445 121.922 150.865C120.722 151.255 119.342 151.45 117.782 151.45ZM111.662 137.59H123.992V137.455C123.992 136.105 123.737 134.905 123.227 133.855C122.747 132.805 122.042 131.98 121.112 131.38C120.182 130.75 119.072 130.435 117.782 130.435C116.492 130.435 115.382 130.75 114.452 131.38C113.552 131.98 112.862 132.805 112.382 133.855C111.902 134.905 111.662 136.105 111.662 137.455V137.59ZM130.768 151C130.468 151 130.213 150.91 130.003 150.73C129.823 150.52 129.733 150.265 129.733 149.965V146.725C129.733 146.425 129.823 146.185 130.003 146.005C130.213 145.795 130.468 145.69 130.768 145.69H134.008C134.308 145.69 134.548 145.795 134.728 146.005C134.938 146.185 135.043 146.425 135.043 146.725V149.965C135.043 150.265 134.938 150.52 134.728 150.73C134.548 150.91 134.308 151 134.008 151H130.768Z" fill="white"/>
<path d="M55.7375 80.256C55.7375 79.6587 55.8655 79.168 56.1215 78.784C56.4202 78.4 56.9108 77.9947 57.5935 77.568L84.4735 60.288C84.6868 60.16 84.9215 60.096 85.1775 60.096C85.5615 60.096 85.8815 60.224 86.1375 60.48C86.3935 60.736 86.5215 61.056 86.5215 61.44V71.808C86.5215 72.448 86.3508 72.96 86.0095 73.344C85.7108 73.6853 85.3908 73.9627 85.0495 74.176C84.7508 74.3893 84.5588 74.5173 84.4735 74.56L73.2735 81.6L84.4735 88.64C84.5588 88.6827 84.7935 88.832 85.1775 89.088C85.6042 89.344 85.9242 89.664 86.1375 90.048C86.3935 90.432 86.5215 90.88 86.5215 91.392V101.76C86.5215 102.144 86.3935 102.464 86.1375 102.72C85.8815 102.976 85.5615 103.104 85.1775 103.104C84.9215 103.104 84.6868 103.04 84.4735 102.912L57.5935 85.632C56.9108 85.2053 56.4202 84.8 56.1215 84.416C55.8655 84.032 55.7375 83.5413 55.7375 82.944V80.256ZM113.249 55.616C113.419 55.104 113.739 54.656 114.208 54.272C114.721 53.888 115.339 53.696 116.065 53.696H125.217C125.601 53.696 125.921 53.8453 126.177 54.144C126.475 54.4 126.625 54.72 126.625 55.104C126.625 55.2747 126.582 55.4667 126.497 55.68L103.585 107.456C103.073 108.736 102.134 109.376 100.769 109.376H91.8085C91.4245 109.376 91.0832 109.227 90.7845 108.928C90.5285 108.672 90.4005 108.352 90.4005 107.968C90.4005 107.797 90.4432 107.605 90.5285 107.392L113.249 55.616ZM161.352 82.944C161.352 83.5413 161.202 84.032 160.904 84.416C160.648 84.8 160.178 85.2053 159.496 85.632L132.616 102.912C132.402 103.04 132.168 103.104 131.912 103.104C131.528 103.104 131.208 102.976 130.952 102.72C130.696 102.464 130.568 102.144 130.568 101.76V91.392C130.568 90.752 130.717 90.2613 131.016 89.92C131.357 89.536 131.677 89.2373 131.976 89.024C132.317 88.8107 132.53 88.6827 132.616 88.64L143.816 81.6L132.616 74.56C132.53 74.5173 132.274 74.368 131.848 74.112C131.464 73.856 131.144 73.536 130.888 73.152C130.674 72.768 130.568 72.32 130.568 71.808V61.44C130.568 61.056 130.696 60.736 130.952 60.48C131.208 60.224 131.528 60.096 131.912 60.096C132.168 60.096 132.402 60.16 132.616 60.288L159.496 77.568C160.178 77.9947 160.648 78.4 160.904 78.784C161.202 79.168 161.352 79.6587 161.352 80.256V82.944Z" fill="green"/>
<path d="M146.426 153C145.706 153 145.13 152.832 144.698 152.496C144.314 152.16 144.002 151.728 143.762 151.2L130.442 117.792C130.346 117.552 130.298 117.312 130.298 117.072C130.298 116.64 130.442 116.28 130.73 115.992C131.018 115.704 131.378 115.56 131.81 115.56H135.266C135.794 115.56 136.202 115.704 136.49 115.992C136.778 116.28 136.946 116.544 136.994 116.784L148.01 145.152L158.954 116.784C159.05 116.544 159.218 116.28 159.458 115.992C159.746 115.704 160.154 115.56 160.682 115.56H164.21C164.594 115.56 164.93 115.704 165.218 115.992C165.554 116.28 165.722 116.64 165.722 117.072C165.722 117.312 165.674 117.552 165.578 117.792L152.186 151.2C151.994 151.728 151.682 152.16 151.25 152.496C150.866 152.832 150.29 153 149.522 153H146.426Z" fill="brown"/>
</svg>


<svg width="70" height="110" viewBox="0 0 217 208" fill="none" xmlns="http://www.w3.org/2000/svg">
            <rect width="217" height="208" fill="none"/>
            <rect x="6.5" y="6.5" width="204" height="195" rx="29.5" stroke="#64FFDA" stroke-width="8"/>
            <path d="M55.7375 80.256C55.7375 79.6587 55.8655 79.168 56.1215 78.784C56.4202 78.4 56.9108 77.9947 57.5935 77.568L84.4735 60.288C84.6868 60.16 84.9215 60.096 85.1775 60.096C85.5615 60.096 85.8815 60.224 86.1375 60.48C86.3935 60.736 86.5215 61.056 86.5215 61.44V71.808C86.5215 72.448 86.3508 72.96 86.0095 73.344C85.7108 73.6853 85.3908 73.9627 85.0495 74.176C84.7508 74.3893 84.5588 74.5173 84.4735 74.56L73.2735 81.6L84.4735 88.64C84.5588 88.6827 84.7935 88.832 85.1775 89.088C85.6042 89.344 85.9242 89.664 86.1375 90.048C86.3935 90.432 86.5215 90.88 86.5215 91.392V101.76C86.5215 102.144 86.3935 102.464 86.1375 102.72C85.8815 102.976 85.5615 103.104 85.1775 103.104C84.9215 103.104 84.6868 103.04 84.4735 102.912L57.5935 85.632C56.9108 85.2053 56.4202 84.8 56.1215 84.416C55.8655 84.032 55.7375 83.5413 55.7375 82.944V80.256ZM113.249 55.616C113.419 55.104 113.739 54.656 114.208 54.272C114.721 53.888 115.339 53.696 116.065 53.696H125.217C125.601 53.696 125.921 53.8453 126.177 54.144C126.475 54.4 126.625 54.72 126.625 55.104C126.625 55.2747 126.582 55.4667 126.497 55.68L103.585 107.456C103.073 108.736 102.134 109.376 100.769 109.376H91.8085C91.4245 109.376 91.0832 109.227 90.7845 108.928C90.5285 108.672 90.4005 108.352 90.4005 107.968C90.4005 107.797 90.4432 107.605 90.5285 107.392L113.249 55.616ZM161.352 82.944C161.352 83.5413 161.202 84.032 160.904 84.416C160.648 84.8 160.178 85.2053 159.496 85.632L132.616 102.912C132.402 103.04 132.168 103.104 131.912 103.104C131.528 103.104 131.208 102.976 130.952 102.72C130.696 102.464 130.568 102.144 130.568 101.76V91.392C130.568 90.752 130.717 90.2613 131.016 89.92C131.357 89.536 131.677 89.2373 131.976 89.024C132.317 88.8107 132.53 88.6827 132.616 88.64L143.816 81.6L132.616 74.56C132.53 74.5173 132.274 74.368 131.848 74.112C131.464 73.856 131.144 73.536 130.888 73.152C130.674 72.768 130.568 72.32 130.568 71.808V61.44C130.568 61.056 130.696 60.736 130.952 60.48C131.208 60.224 131.528 60.096 131.912 60.096C132.168 60.096 132.402 60.16 132.616 60.288L159.496 77.568C160.178 77.9947 160.648 78.4 160.904 78.784C161.202 79.168 161.352 79.6587 161.352 80.256V82.944ZM53.9475 157C53.6475 157 53.3925 156.91 53.1825 156.73C53.0025 156.52 52.9125 156.265 52.9125 155.965V134.635C52.9125 134.335 53.0025 134.095 53.1825 133.915C53.3925 133.705 53.6475 133.6 53.9475 133.6H55.9725C56.2725 133.6 56.5125 133.705 56.6925 133.915C56.9025 134.095 57.0075 134.335 57.0075 134.635V136.21C57.6975 135.28 58.5675 134.545 59.6175 134.005C60.6675 133.435 61.9275 133.15 63.3975 133.15C66.7875 133.12 69.1875 134.5 70.5975 137.29C71.2875 136.03 72.2925 135.025 73.6125 134.275C74.9325 133.525 76.4325 133.15 78.1125 133.15C79.6725 133.15 81.0825 133.51 82.3425 134.23C83.6325 134.95 84.6375 136.045 85.3575 137.515C86.1075 138.955 86.4825 140.77 86.4825 142.96V155.965C86.4825 156.265 86.3775 156.52 86.1675 156.73C85.9875 156.91 85.7475 157 85.4475 157H83.3325C83.0325 157 82.7775 156.91 82.5675 156.73C82.3875 156.52 82.2975 156.265 82.2975 155.965V143.365C82.2975 141.685 82.0575 140.365 81.5775 139.405C81.0975 138.445 80.4525 137.77 79.6425 137.38C78.8325 136.99 77.9475 136.795 76.9875 136.795C76.2075 136.795 75.4125 136.99 74.6025 137.38C73.7925 137.77 73.1175 138.445 72.5775 139.405C72.0675 140.365 71.8125 141.685 71.8125 143.365V155.965C71.8125 156.265 71.7075 156.52 71.4975 156.73C71.3175 156.91 71.0775 157 70.7775 157H68.6625C68.3625 157 68.1075 156.91 67.8975 156.73C67.7175 156.52 67.6275 156.265 67.6275 155.965V143.365C67.6275 141.685 67.3725 140.365 66.8625 139.405C66.3525 138.445 65.6925 137.77 64.8825 137.38C64.0725 136.99 63.2175 136.795 62.3175 136.795C61.5375 136.795 60.7425 136.99 59.9325 137.38C59.1225 137.77 58.4475 138.445 57.9075 139.405C57.3975 140.365 57.1425 141.67 57.1425 143.32V155.965C57.1425 156.265 57.0375 156.52 56.8275 156.73C56.6475 156.91 56.4075 157 56.1075 157H53.9475ZM90.3378 157C90.0378 157 89.7828 156.91 89.5728 156.73C89.3928 156.52 89.3028 156.265 89.3028 155.965V134.635C89.3028 134.335 89.3928 134.095 89.5728 133.915C89.7828 133.705 90.0378 133.6 90.3378 133.6H92.4978C92.7978 133.6 93.0378 133.705 93.2178 133.915C93.3978 134.095 93.4878 134.335 93.4878 134.635V155.965C93.4878 156.265 93.3978 156.52 93.2178 156.73C93.0378 156.91 92.7978 157 92.4978 157H90.3378ZM89.9778 129.235C89.6778 129.235 89.4228 129.145 89.2128 128.965C89.0328 128.755 88.9428 128.5 88.9428 128.2V125.77C88.9428 125.47 89.0328 125.23 89.2128 125.05C89.4228 124.84 89.6778 124.735 89.9778 124.735H92.8128C93.1128 124.735 93.3528 124.84 93.5328 125.05C93.7428 125.23 93.8478 125.47 93.8478 125.77V128.2C93.8478 128.5 93.7428 128.755 93.5328 128.965C93.3528 129.145 93.1128 129.235 92.8128 129.235H89.9778ZM97.6812 157C97.3812 157 97.1262 156.91 96.9162 156.73C96.7362 156.52 96.6462 156.265 96.6462 155.965V126.085C96.6462 125.785 96.7362 125.545 96.9162 125.365C97.1262 125.155 97.3812 125.05 97.6812 125.05H99.7962C100.096 125.05 100.336 125.155 100.516 125.365C100.726 125.545 100.831 125.785 100.831 126.085V141.745L109.696 134.365C110.056 134.065 110.326 133.87 110.506 133.78C110.716 133.66 111.046 133.6 111.496 133.6H113.881C114.151 133.6 114.376 133.69 114.556 133.87C114.736 134.05 114.826 134.275 114.826 134.545C114.826 134.665 114.781 134.8 114.691 134.95C114.631 135.1 114.496 135.25 114.286 135.4L103.891 144.04L115.411 155.245C115.771 155.545 115.951 155.815 115.951 156.055C115.951 156.325 115.861 156.55 115.681 156.73C115.501 156.91 115.276 157 115.006 157H112.666C112.216 157 111.886 156.955 111.676 156.865C111.466 156.745 111.196 156.535 110.866 156.235L100.831 146.65V155.965C100.831 156.265 100.726 156.52 100.516 156.73C100.336 156.91 100.096 157 99.7962 157H97.6812ZM124.421 157.45C121.331 157.45 118.871 156.505 117.041 154.615C115.211 152.695 114.206 150.085 114.026 146.785C113.996 146.395 113.981 145.9 113.981 145.3C113.981 144.67 113.996 144.16 114.026 143.77C114.146 141.64 114.641 139.78 115.511 138.19C116.381 136.57 117.566 135.325 119.066 134.455C120.596 133.585 122.381 133.15 124.421 133.15C126.701 133.15 128.606 133.63 130.136 134.59C131.696 135.55 132.881 136.915 133.691 138.685C134.501 140.455 134.906 142.525 134.906 144.895V145.66C134.906 145.99 134.801 146.245 134.591 146.425C134.411 146.605 134.171 146.695 133.871 146.695H118.301C118.301 146.725 118.301 146.785 118.301 146.875C118.301 146.965 118.301 147.04 118.301 147.1C118.361 148.33 118.631 149.485 119.111 150.565C119.591 151.615 120.281 152.47 121.181 153.13C122.081 153.79 123.161 154.12 124.421 154.12C125.501 154.12 126.401 153.955 127.121 153.625C127.841 153.295 128.426 152.935 128.876 152.545C129.326 152.125 129.626 151.81 129.776 151.6C130.046 151.21 130.256 150.985 130.406 150.925C130.556 150.835 130.796 150.79 131.126 150.79H133.286C133.586 150.79 133.826 150.88 134.006 151.06C134.216 151.21 134.306 151.435 134.276 151.735C134.246 152.185 134.006 152.74 133.556 153.4C133.106 154.03 132.461 154.66 131.621 155.29C130.781 155.92 129.761 156.445 128.561 156.865C127.361 157.255 125.981 157.45 124.421 157.45ZM118.301 143.59H130.631V143.455C130.631 142.105 130.376 140.905 129.866 139.855C129.386 138.805 128.681 137.98 127.751 137.38C126.821 136.75 125.711 136.435 124.421 136.435C123.131 136.435 122.021 136.75 121.091 137.38C120.191 137.98 119.501 138.805 119.021 139.855C118.541 140.905 118.301 142.105 118.301 143.455V143.59ZM137.406 157C137.106 157 136.851 156.91 136.641 156.73C136.461 156.52 136.371 156.265 136.371 155.965V152.725C136.371 152.425 136.461 152.185 136.641 152.005C136.851 151.795 137.106 151.69 137.406 151.69H140.646C140.946 151.69 141.186 151.795 141.366 152.005C141.576 152.185 141.681 152.425 141.681 152.725V155.965C141.681 156.265 141.576 156.52 141.366 156.73C141.186 156.91 140.946 157 140.646 157H137.406ZM151.249 157C150.799 157 150.439 156.895 150.169 156.685C149.929 156.475 149.734 156.19 149.584 155.83L139.549 126.895C139.489 126.715 139.459 126.55 139.459 126.4C139.459 126.16 139.549 125.95 139.729 125.77C139.909 125.59 140.119 125.5 140.359 125.5H142.699C143.059 125.5 143.329 125.605 143.509 125.815C143.719 125.995 143.839 126.16 143.869 126.31L152.689 151.825L161.509 126.31C161.569 126.16 161.689 125.995 161.869 125.815C162.049 125.605 162.319 125.5 162.679 125.5H165.019C165.259 125.5 165.469 125.59 165.649 125.77C165.859 125.95 165.964 126.16 165.964 126.4C165.964 126.55 165.934 126.715 165.874 126.895L155.794 155.83C155.674 156.19 155.479 156.475 155.209 156.685C154.969 156.895 154.624 157 154.174 157H151.249Z" fill="white"/>
          </svg>